<mxfile host="Electron" agent="Mozilla/5.0 (Windows NT 10.0; Win64; x64) AppleWebKit/537.36 (KHTML, like Gecko) draw.io/25.0.1 Chrome/128.0.6613.186 Electron/32.2.6 Safari/537.36" version="25.0.1">
  <diagram name="Page-1" id="VjMipu_9grMcbaywyVFJ">
    <mxGraphModel dx="2713" dy="1847" grid="1" gridSize="10" guides="1" tooltips="1" connect="1" arrows="1" fold="1" page="1" pageScale="1" pageWidth="850" pageHeight="1100" math="0" shadow="0">
      <root>
        <mxCell id="0" />
        <mxCell id="1" parent="0" />
        <mxCell id="YY8BE6eEwyNj8fWLuwdb-1" value="&lt;b&gt;&lt;span style=&quot;font-size:14.0pt;line-height:&lt;br/&gt;107%;font-family:&amp;quot;Times New Roman&amp;quot;,serif;mso-fareast-font-family:Calibri;&lt;br/&gt;mso-fareast-theme-font:minor-latin;mso-ansi-language:UK;mso-fareast-language:&lt;br/&gt;EN-US;mso-bidi-language:AR-SA&quot; lang=&quot;UK&quot;&gt;Teacher&amp;nbsp;&lt;/span&gt;&lt;/b&gt;" style="swimlane;fontStyle=0;childLayout=stackLayout;horizontal=1;startSize=26;fillColor=none;horizontalStack=0;resizeParent=1;resizeParentMax=0;resizeLast=0;collapsible=1;marginBottom=0;whiteSpace=wrap;html=1;" vertex="1" parent="1">
          <mxGeometry x="220" y="480" width="290" height="240" as="geometry" />
        </mxCell>
        <mxCell id="YY8BE6eEwyNj8fWLuwdb-2" value="&lt;ul type=&quot;disc&quot; style=&quot;margin-top:0in&quot;&gt;&lt;br/&gt; &lt;li style=&quot;margin-bottom:0in;text-align:justify;line-height:&lt;br/&gt;     150%;mso-list:l0 level1 lfo1;tab-stops:list .5in&quot; class=&quot;MsoNormal&quot;&gt;&lt;font&gt;&lt;b style=&quot;&quot;&gt;&lt;span style=&quot;line-height: 150%; font-family: &amp;quot;Times New Roman&amp;quot;, serif;&quot; lang=&quot;UK&quot;&gt;teacherid&lt;/span&gt;&lt;/b&gt;&lt;span style=&quot;line-height: 150%; font-family: &amp;quot;Times New Roman&amp;quot;, serif;&quot; lang=&quot;UK&quot;&gt;: integer (Primary Key)&lt;/span&gt;&lt;/font&gt;&lt;/li&gt;&lt;br/&gt; &lt;li style=&quot;margin-bottom:0in;text-align:justify;line-height:&lt;br/&gt;     150%;mso-list:l0 level1 lfo1;tab-stops:list .5in&quot; class=&quot;MsoNormal&quot;&gt;&lt;font&gt;&lt;b&gt;&lt;span style=&quot;line-height: 150%; font-family: &amp;quot;Times New Roman&amp;quot;, serif;&quot; lang=&quot;UK&quot;&gt;name&lt;/span&gt;&lt;/b&gt;&lt;span style=&quot;line-height: 150%; font-family: &amp;quot;Times New Roman&amp;quot;, serif;&quot; lang=&quot;UK&quot;&gt;: varchar(100)&lt;/span&gt;&lt;/font&gt;&lt;/li&gt;&lt;br/&gt; &lt;li style=&quot;margin-bottom:0in;text-align:justify;line-height:&lt;br/&gt;     150%;mso-list:l0 level1 lfo1;tab-stops:list .5in&quot; class=&quot;MsoNormal&quot;&gt;&lt;font&gt;&lt;b&gt;&lt;span style=&quot;line-height: 150%; font-family: &amp;quot;Times New Roman&amp;quot;, serif;&quot; lang=&quot;UK&quot;&gt;phonenumber&lt;/span&gt;&lt;/b&gt;&lt;span style=&quot;line-height: 150%; font-family: &amp;quot;Times New Roman&amp;quot;, serif;&quot; lang=&quot;UK&quot;&gt;: varchar(20)&lt;/span&gt;&lt;/font&gt;&lt;/li&gt;&lt;br/&gt; &lt;li style=&quot;margin-bottom:0in;text-align:justify;line-height:&lt;br/&gt;     150%;mso-list:l0 level1 lfo1;tab-stops:list .5in&quot; class=&quot;MsoNormal&quot;&gt;&lt;font&gt;&lt;b&gt;&lt;span style=&quot;line-height: 150%; font-family: &amp;quot;Times New Roman&amp;quot;, serif;&quot; lang=&quot;UK&quot;&gt;email&lt;/span&gt;&lt;/b&gt;&lt;span style=&quot;line-height: 150%; font-family: &amp;quot;Times New Roman&amp;quot;, serif;&quot; lang=&quot;UK&quot;&gt;: varchar(255)&lt;/span&gt;&lt;/font&gt;&lt;/li&gt;&lt;br/&gt; &lt;li style=&quot;margin-bottom:0in;text-align:justify;line-height:&lt;br/&gt;     150%;mso-list:l0 level1 lfo1;tab-stops:list .5in&quot; class=&quot;MsoNormal&quot;&gt;&lt;font&gt;&lt;b&gt;&lt;span style=&quot;line-height: 150%; font-family: &amp;quot;Times New Roman&amp;quot;, serif;&quot; lang=&quot;UK&quot;&gt;classroomnumber&lt;/span&gt;&lt;/b&gt;&lt;span style=&quot;line-height: 150%; font-family: &amp;quot;Times New Roman&amp;quot;, serif;&quot; lang=&quot;UK&quot;&gt;: varchar(10)&lt;/span&gt;&lt;/font&gt;&lt;/li&gt;&lt;br/&gt; &lt;li style=&quot;margin-bottom:0in;text-align:justify;line-height:&lt;br/&gt;     150%;mso-list:l0 level1 lfo1;tab-stops:list .5in&quot; class=&quot;MsoNormal&quot;&gt;&lt;b&gt;&lt;span style=&quot;line-height: 150%; font-family: &amp;quot;Times New Roman&amp;quot;, serif;&quot; lang=&quot;UK&quot;&gt;&lt;font&gt;hire_date&lt;/font&gt;&lt;/span&gt;&lt;/b&gt;&lt;span style=&quot;line-height: 150%; font-family: &amp;quot;Times New Roman&amp;quot;, serif;&quot; lang=&quot;UK&quot;&gt;&lt;font&gt;: date&lt;/font&gt;&lt;span style=&quot;font-size: 14pt;&quot;&gt;&lt;/span&gt;&lt;/span&gt;&lt;/li&gt;&lt;br/&gt;&lt;/ul&gt;" style="text;strokeColor=none;fillColor=none;align=left;verticalAlign=top;spacingLeft=4;spacingRight=4;overflow=hidden;rotatable=0;points=[[0,0.5],[1,0.5]];portConstraint=eastwest;whiteSpace=wrap;html=1;" vertex="1" parent="YY8BE6eEwyNj8fWLuwdb-1">
          <mxGeometry y="26" width="290" height="214" as="geometry" />
        </mxCell>
        <mxCell id="YY8BE6eEwyNj8fWLuwdb-5" value="&lt;b&gt;&lt;span style=&quot;font-size:14.0pt;line-height:&lt;br/&gt;107%;font-family:&amp;quot;Times New Roman&amp;quot;,serif;mso-fareast-font-family:Calibri;&lt;br/&gt;mso-fareast-theme-font:minor-latin;mso-ansi-language:UK;mso-fareast-language:&lt;br/&gt;EN-US;mso-bidi-language:AR-SA&quot; lang=&quot;UK&quot;&gt;TeacherSubject&amp;nbsp;&lt;/span&gt;&lt;/b&gt;" style="swimlane;fontStyle=0;childLayout=stackLayout;horizontal=1;startSize=26;fillColor=none;horizontalStack=0;resizeParent=1;resizeParentMax=0;resizeLast=0;collapsible=1;marginBottom=0;whiteSpace=wrap;html=1;" vertex="1" parent="1">
          <mxGeometry x="520" y="820" width="240" height="120" as="geometry" />
        </mxCell>
        <mxCell id="YY8BE6eEwyNj8fWLuwdb-7" value="&lt;ul type=&quot;disc&quot; style=&quot;margin-top:0in&quot;&gt;&lt;br/&gt; &lt;li style=&quot;margin-bottom:0in;text-align:justify;line-height:&lt;br/&gt;     150%;mso-list:l0 level1 lfo1;tab-stops:list .5in&quot; class=&quot;MsoNormal&quot;&gt;&lt;font&gt;&lt;b style=&quot;&quot;&gt;&lt;span style=&quot;line-height: 150%; font-family: &amp;quot;Times New Roman&amp;quot;, serif;&quot; lang=&quot;UK&quot;&gt;teacherid&lt;/span&gt;&lt;/b&gt;&lt;span style=&quot;line-height: 150%; font-family: &amp;quot;Times New Roman&amp;quot;, serif;&quot; lang=&quot;UK&quot;&gt;: integer (Foreign Key)&lt;/span&gt;&lt;/font&gt;&lt;/li&gt;&lt;br/&gt; &lt;li style=&quot;margin-bottom:0in;text-align:justify;line-height:&lt;br/&gt;     150%;mso-list:l0 level1 lfo1;tab-stops:list .5in&quot; class=&quot;MsoNormal&quot;&gt;&lt;b&gt;&lt;span style=&quot;line-height: 150%; font-family: &amp;quot;Times New Roman&amp;quot;, serif;&quot; lang=&quot;UK&quot;&gt;&lt;font&gt;subjectid&lt;/font&gt;&lt;/span&gt;&lt;/b&gt;&lt;span style=&quot;line-height: 150%; font-family: &amp;quot;Times New Roman&amp;quot;, serif;&quot; lang=&quot;UK&quot;&gt;&lt;font&gt;: integer (Foreign Key)&lt;/font&gt;&lt;span style=&quot;font-size: 14pt;&quot;&gt;&lt;/span&gt;&lt;/span&gt;&lt;/li&gt;&lt;br/&gt;&lt;/ul&gt;" style="text;strokeColor=none;fillColor=none;align=left;verticalAlign=top;spacingLeft=4;spacingRight=4;overflow=hidden;rotatable=0;points=[[0,0.5],[1,0.5]];portConstraint=eastwest;whiteSpace=wrap;html=1;" vertex="1" parent="YY8BE6eEwyNj8fWLuwdb-5">
          <mxGeometry y="26" width="240" height="94" as="geometry" />
        </mxCell>
        <mxCell id="YY8BE6eEwyNj8fWLuwdb-9" value="&lt;b&gt;&lt;span style=&quot;font-size:14.0pt;line-height:&lt;br/&gt;107%;font-family:&amp;quot;Times New Roman&amp;quot;,serif;mso-fareast-font-family:Calibri;&lt;br/&gt;mso-fareast-theme-font:minor-latin;mso-ansi-language:UK;mso-fareast-language:&lt;br/&gt;EN-US;mso-bidi-language:AR-SA&quot; lang=&quot;UK&quot;&gt;Subject&amp;nbsp;&lt;/span&gt;&lt;/b&gt;" style="swimlane;fontStyle=0;childLayout=stackLayout;horizontal=1;startSize=26;fillColor=none;horizontalStack=0;resizeParent=1;resizeParentMax=0;resizeLast=0;collapsible=1;marginBottom=0;whiteSpace=wrap;html=1;" vertex="1" parent="1">
          <mxGeometry x="530" y="1070" width="220" height="110" as="geometry" />
        </mxCell>
        <mxCell id="YY8BE6eEwyNj8fWLuwdb-12" value="&lt;ul type=&quot;disc&quot; style=&quot;margin-top:0in&quot;&gt;&lt;br/&gt; &lt;li style=&quot;margin-bottom:0in;text-align:justify;line-height:&lt;br/&gt;     150%;mso-list:l0 level1 lfo1;tab-stops:list .5in&quot; class=&quot;MsoNormal&quot;&gt;&lt;font&gt;&lt;b style=&quot;&quot;&gt;&lt;span style=&quot;line-height: 150%; font-family: &amp;quot;Times New Roman&amp;quot;, serif;&quot; lang=&quot;UK&quot;&gt;subjectid&lt;/span&gt;&lt;/b&gt;&lt;span style=&quot;line-height: 150%; font-family: &amp;quot;Times New Roman&amp;quot;, serif;&quot; lang=&quot;UK&quot;&gt;: integer (Primary Key)&lt;/span&gt;&lt;/font&gt;&lt;/li&gt;&lt;br/&gt; &lt;li style=&quot;margin-bottom:0in;text-align:justify;line-height:&lt;br/&gt;     150%;mso-list:l0 level1 lfo1;tab-stops:list .5in&quot; class=&quot;MsoNormal&quot;&gt;&lt;b&gt;&lt;span style=&quot;line-height: 150%; font-family: &amp;quot;Times New Roman&amp;quot;, serif;&quot; lang=&quot;UK&quot;&gt;&lt;font&gt;subjectname&lt;/font&gt;&lt;/span&gt;&lt;/b&gt;&lt;span style=&quot;line-height: 150%; font-family: &amp;quot;Times New Roman&amp;quot;, serif;&quot; lang=&quot;UK&quot;&gt;&lt;font&gt;: varchar(100)&lt;/font&gt;&lt;span style=&quot;font-size: 14pt;&quot;&gt;&lt;/span&gt;&lt;/span&gt;&lt;/li&gt;&lt;br/&gt;&lt;/ul&gt;" style="text;strokeColor=none;fillColor=none;align=left;verticalAlign=top;spacingLeft=4;spacingRight=4;overflow=hidden;rotatable=0;points=[[0,0.5],[1,0.5]];portConstraint=eastwest;whiteSpace=wrap;html=1;" vertex="1" parent="YY8BE6eEwyNj8fWLuwdb-9">
          <mxGeometry y="26" width="220" height="84" as="geometry" />
        </mxCell>
        <mxCell id="YY8BE6eEwyNj8fWLuwdb-14" value="" style="endArrow=none;html=1;rounded=0;curved=1;entryX=0.444;entryY=0.007;entryDx=0;entryDy=0;entryPerimeter=0;" edge="1" parent="1" target="YY8BE6eEwyNj8fWLuwdb-5">
          <mxGeometry width="50" height="50" relative="1" as="geometry">
            <mxPoint x="510" y="720" as="sourcePoint" />
            <mxPoint x="560" y="670" as="targetPoint" />
          </mxGeometry>
        </mxCell>
        <mxCell id="YY8BE6eEwyNj8fWLuwdb-15" value="М" style="text;html=1;align=center;verticalAlign=middle;resizable=0;points=[];autosize=1;strokeColor=none;fillColor=none;" vertex="1" parent="1">
          <mxGeometry x="505" y="698" width="30" height="30" as="geometry" />
        </mxCell>
        <mxCell id="YY8BE6eEwyNj8fWLuwdb-16" value="N" style="text;html=1;align=center;verticalAlign=middle;resizable=0;points=[];autosize=1;strokeColor=none;fillColor=none;" vertex="1" parent="1">
          <mxGeometry x="620" y="790" width="30" height="30" as="geometry" />
        </mxCell>
        <mxCell id="YY8BE6eEwyNj8fWLuwdb-17" value="Викладає" style="text;html=1;align=center;verticalAlign=middle;resizable=0;points=[];autosize=1;strokeColor=none;fillColor=none;" vertex="1" parent="1">
          <mxGeometry x="475" y="698" width="80" height="30" as="geometry" />
        </mxCell>
        <mxCell id="YY8BE6eEwyNj8fWLuwdb-18" value="" style="endArrow=none;html=1;rounded=0;curved=1;exitX=0.5;exitY=0;exitDx=0;exitDy=0;" edge="1" parent="1" source="YY8BE6eEwyNj8fWLuwdb-9">
          <mxGeometry width="50" height="50" relative="1" as="geometry">
            <mxPoint x="590" y="990" as="sourcePoint" />
            <mxPoint x="640" y="940" as="targetPoint" />
          </mxGeometry>
        </mxCell>
        <mxCell id="YY8BE6eEwyNj8fWLuwdb-19" value="N" style="text;html=1;align=center;verticalAlign=middle;resizable=0;points=[];autosize=1;strokeColor=none;fillColor=none;" vertex="1" parent="1">
          <mxGeometry x="640" y="1048" width="30" height="30" as="geometry" />
        </mxCell>
        <mxCell id="YY8BE6eEwyNj8fWLuwdb-20" value="М" style="text;html=1;align=center;verticalAlign=middle;resizable=0;points=[];autosize=1;strokeColor=none;fillColor=none;" vertex="1" parent="1">
          <mxGeometry x="640" y="940" width="30" height="30" as="geometry" />
        </mxCell>
        <mxCell id="YY8BE6eEwyNj8fWLuwdb-21" value="Викладається" style="text;html=1;align=center;verticalAlign=middle;resizable=0;points=[];autosize=1;strokeColor=none;fillColor=none;" vertex="1" parent="1">
          <mxGeometry x="640" y="988" width="100" height="30" as="geometry" />
        </mxCell>
        <mxCell id="YY8BE6eEwyNj8fWLuwdb-22" value="&lt;b&gt;&lt;span style=&quot;font-size:14.0pt;line-height:&lt;br/&gt;107%;font-family:&amp;quot;Times New Roman&amp;quot;,serif;mso-fareast-font-family:Calibri;&lt;br/&gt;mso-fareast-theme-font:minor-latin;mso-ansi-language:UK;mso-fareast-language:&lt;br/&gt;EN-US;mso-bidi-language:AR-SA&quot; lang=&quot;UK&quot;&gt;Regular_Schedule&amp;nbsp;&lt;/span&gt;&lt;/b&gt;" style="swimlane;fontStyle=0;childLayout=stackLayout;horizontal=1;startSize=26;fillColor=none;horizontalStack=0;resizeParent=1;resizeParentMax=0;resizeLast=0;collapsible=1;marginBottom=0;whiteSpace=wrap;html=1;" vertex="1" parent="1">
          <mxGeometry x="235" y="1440" width="260" height="400" as="geometry" />
        </mxCell>
        <mxCell id="YY8BE6eEwyNj8fWLuwdb-25" value="&lt;ul type=&quot;disc&quot; style=&quot;margin-top:0in&quot;&gt;&lt;br/&gt; &lt;li style=&quot;margin-bottom:0in;text-align:justify;line-height:&lt;br/&gt;     150%;mso-list:l0 level1 lfo1;tab-stops:list .5in&quot; class=&quot;MsoNormal&quot;&gt;&lt;font&gt;&lt;b&gt;&lt;span style=&quot;line-height: 150%; font-family: &amp;quot;Times New Roman&amp;quot;, serif;&quot; lang=&quot;UK&quot;&gt;scheduleid&lt;/span&gt;&lt;/b&gt;&lt;span style=&quot;line-height: 150%; font-family: &amp;quot;Times New Roman&amp;quot;, serif;&quot; lang=&quot;UK&quot;&gt;: integer (Primary Key)&lt;/span&gt;&lt;/font&gt;&lt;/li&gt;&lt;br/&gt; &lt;li style=&quot;margin-bottom:0in;text-align:justify;line-height:&lt;br/&gt;     150%;mso-list:l0 level1 lfo1;tab-stops:list .5in&quot; class=&quot;MsoNormal&quot;&gt;&lt;font&gt;&lt;b&gt;&lt;span style=&quot;line-height: 150%; font-family: &amp;quot;Times New Roman&amp;quot;, serif;&quot; lang=&quot;UK&quot;&gt;starttime&lt;/span&gt;&lt;/b&gt;&lt;span style=&quot;line-height: 150%; font-family: &amp;quot;Times New Roman&amp;quot;, serif;&quot; lang=&quot;UK&quot;&gt;: time&lt;/span&gt;&lt;/font&gt;&lt;/li&gt;&lt;br/&gt; &lt;li style=&quot;margin-bottom:0in;text-align:justify;line-height:&lt;br/&gt;     150%;mso-list:l0 level1 lfo1;tab-stops:list .5in&quot; class=&quot;MsoNormal&quot;&gt;&lt;font&gt;&lt;b&gt;&lt;span style=&quot;line-height: 150%; font-family: &amp;quot;Times New Roman&amp;quot;, serif;&quot; lang=&quot;UK&quot;&gt;endtime&lt;/span&gt;&lt;/b&gt;&lt;span style=&quot;line-height: 150%; font-family: &amp;quot;Times New Roman&amp;quot;, serif;&quot; lang=&quot;UK&quot;&gt;: time&lt;/span&gt;&lt;/font&gt;&lt;/li&gt;&lt;br/&gt; &lt;li style=&quot;margin-bottom:0in;text-align:justify;line-height:&lt;br/&gt;     150%;mso-list:l0 level1 lfo1;tab-stops:list .5in&quot; class=&quot;MsoNormal&quot;&gt;&lt;font&gt;&lt;b&gt;&lt;span style=&quot;line-height: 150%; font-family: &amp;quot;Times New Roman&amp;quot;, serif;&quot; lang=&quot;UK&quot;&gt;classid&lt;/span&gt;&lt;/b&gt;&lt;span style=&quot;line-height: 150%; font-family: &amp;quot;Times New Roman&amp;quot;, serif;&quot; lang=&quot;UK&quot;&gt;: integer (Foreign Key)&lt;/span&gt;&lt;/font&gt;&lt;/li&gt;&lt;br/&gt; &lt;li style=&quot;margin-bottom:0in;text-align:justify;line-height:&lt;br/&gt;     150%;mso-list:l0 level1 lfo1;tab-stops:list .5in&quot; class=&quot;MsoNormal&quot;&gt;&lt;font&gt;&lt;b&gt;&lt;span style=&quot;line-height: 150%; font-family: &amp;quot;Times New Roman&amp;quot;, serif;&quot; lang=&quot;UK&quot;&gt;teacherid&lt;/span&gt;&lt;/b&gt;&lt;span style=&quot;line-height: 150%; font-family: &amp;quot;Times New Roman&amp;quot;, serif;&quot; lang=&quot;UK&quot;&gt;: integer (Foreign Key)&lt;/span&gt;&lt;/font&gt;&lt;/li&gt;&lt;br/&gt; &lt;li style=&quot;margin-bottom:0in;text-align:justify;line-height:&lt;br/&gt;     150%;mso-list:l0 level1 lfo1;tab-stops:list .5in&quot; class=&quot;MsoNormal&quot;&gt;&lt;font&gt;&lt;b&gt;&lt;span style=&quot;line-height: 150%; font-family: &amp;quot;Times New Roman&amp;quot;, serif;&quot; lang=&quot;UK&quot;&gt;subjectid&lt;/span&gt;&lt;/b&gt;&lt;span style=&quot;line-height: 150%; font-family: &amp;quot;Times New Roman&amp;quot;, serif;&quot; lang=&quot;UK&quot;&gt;: integer (Foreign Key)&lt;/span&gt;&lt;/font&gt;&lt;/li&gt;&lt;br/&gt; &lt;li style=&quot;margin-bottom:0in;text-align:justify;line-height:&lt;br/&gt;     150%;mso-list:l0 level1 lfo1;tab-stops:list .5in&quot; class=&quot;MsoNormal&quot;&gt;&lt;font&gt;&lt;b&gt;&lt;span style=&quot;line-height: 150%; font-family: &amp;quot;Times New Roman&amp;quot;, serif;&quot; lang=&quot;UK&quot;&gt;classroomid&lt;/span&gt;&lt;/b&gt;&lt;span style=&quot;line-height: 150%; font-family: &amp;quot;Times New Roman&amp;quot;, serif;&quot; lang=&quot;UK&quot;&gt;: integer (Foreign Key)&lt;/span&gt;&lt;/font&gt;&lt;/li&gt;&lt;br/&gt; &lt;li style=&quot;margin-bottom:0in;text-align:justify;line-height:&lt;br/&gt;     150%;mso-list:l0 level1 lfo1;tab-stops:list .5in&quot; class=&quot;MsoNormal&quot;&gt;&lt;font&gt;&lt;b&gt;&lt;span style=&quot;line-height: 150%; font-family: &amp;quot;Times New Roman&amp;quot;, serif;&quot; lang=&quot;UK&quot;&gt;dayofweek&lt;/span&gt;&lt;/b&gt;&lt;span style=&quot;line-height: 150%; font-family: &amp;quot;Times New Roman&amp;quot;, serif;&quot; lang=&quot;UK&quot;&gt;: varchar(20)&lt;/span&gt;&lt;/font&gt;&lt;/li&gt;&lt;br/&gt; &lt;li style=&quot;margin-bottom:0in;text-align:justify;line-height:&lt;br/&gt;     150%;mso-list:l0 level1 lfo1;tab-stops:list .5in&quot; class=&quot;MsoNormal&quot;&gt;&lt;font&gt;&lt;b&gt;&lt;span style=&quot;line-height: 150%; font-family: &amp;quot;Times New Roman&amp;quot;, serif;&quot; lang=&quot;UK&quot;&gt;lessonnumber&lt;/span&gt;&lt;/b&gt;&lt;span style=&quot;line-height: 150%; font-family: &amp;quot;Times New Roman&amp;quot;, serif;&quot; lang=&quot;UK&quot;&gt;: integer&lt;/span&gt;&lt;/font&gt;&lt;/li&gt;&lt;br/&gt; &lt;li style=&quot;margin-bottom:0in;text-align:justify;line-height:&lt;br/&gt;     150%;mso-list:l0 level1 lfo1;tab-stops:list .5in&quot; class=&quot;MsoNormal&quot;&gt;&lt;font&gt;&lt;b&gt;&lt;span style=&quot;line-height: 150%; font-family: &amp;quot;Times New Roman&amp;quot;, serif;&quot; lang=&quot;UK&quot;&gt;valid_from&lt;/span&gt;&lt;/b&gt;&lt;span style=&quot;line-height: 150%; font-family: &amp;quot;Times New Roman&amp;quot;, serif;&quot; lang=&quot;UK&quot;&gt;: date&lt;/span&gt;&lt;/font&gt;&lt;/li&gt;&lt;br/&gt; &lt;li style=&quot;margin-bottom:0in;text-align:justify;line-height:&lt;br/&gt;     150%;mso-list:l0 level1 lfo1;tab-stops:list .5in&quot; class=&quot;MsoNormal&quot;&gt;&lt;b&gt;&lt;span style=&quot;line-height: 150%; font-family: &amp;quot;Times New Roman&amp;quot;, serif;&quot; lang=&quot;UK&quot;&gt;&lt;font&gt;valid_until&lt;/font&gt;&lt;/span&gt;&lt;/b&gt;&lt;span style=&quot;line-height: 150%; font-family: &amp;quot;Times New Roman&amp;quot;, serif;&quot; lang=&quot;UK&quot;&gt;&lt;font&gt;: date&lt;/font&gt;&lt;span style=&quot;font-size: 14pt;&quot;&gt;&lt;/span&gt;&lt;/span&gt;&lt;/li&gt;&lt;br/&gt;&lt;/ul&gt;" style="text;strokeColor=none;fillColor=none;align=left;verticalAlign=top;spacingLeft=4;spacingRight=4;overflow=hidden;rotatable=0;points=[[0,0.5],[1,0.5]];portConstraint=eastwest;whiteSpace=wrap;html=1;" vertex="1" parent="YY8BE6eEwyNj8fWLuwdb-22">
          <mxGeometry y="26" width="260" height="374" as="geometry" />
        </mxCell>
        <mxCell id="YY8BE6eEwyNj8fWLuwdb-28" value="" style="endArrow=none;html=1;rounded=0;curved=1;entryX=0.485;entryY=1;entryDx=0;entryDy=0;entryPerimeter=0;" edge="1" parent="1" target="YY8BE6eEwyNj8fWLuwdb-2">
          <mxGeometry width="50" height="50" relative="1" as="geometry">
            <mxPoint x="360" y="1440" as="sourcePoint" />
            <mxPoint x="410" y="1390" as="targetPoint" />
          </mxGeometry>
        </mxCell>
        <mxCell id="YY8BE6eEwyNj8fWLuwdb-29" value="1" style="text;html=1;align=center;verticalAlign=middle;resizable=0;points=[];autosize=1;strokeColor=none;fillColor=none;" vertex="1" parent="1">
          <mxGeometry x="370" y="720" width="30" height="30" as="geometry" />
        </mxCell>
        <mxCell id="YY8BE6eEwyNj8fWLuwdb-30" value="М" style="text;html=1;align=center;verticalAlign=middle;resizable=0;points=[];autosize=1;strokeColor=none;fillColor=none;" vertex="1" parent="1">
          <mxGeometry x="360" y="1410" width="30" height="30" as="geometry" />
        </mxCell>
        <mxCell id="YY8BE6eEwyNj8fWLuwdb-31" value="Проводить укроки" style="text;html=1;align=center;verticalAlign=middle;resizable=0;points=[];autosize=1;strokeColor=none;fillColor=none;" vertex="1" parent="1">
          <mxGeometry x="360" y="1090" width="120" height="30" as="geometry" />
        </mxCell>
        <mxCell id="YY8BE6eEwyNj8fWLuwdb-32" value="&lt;b&gt;&lt;span style=&quot;font-size:14.0pt;line-height:&lt;br/&gt;107%;font-family:&amp;quot;Times New Roman&amp;quot;,serif;mso-fareast-font-family:Calibri;&lt;br/&gt;mso-fareast-theme-font:minor-latin;mso-ansi-language:UK;mso-fareast-language:&lt;br/&gt;EN-US;mso-bidi-language:AR-SA&quot; lang=&quot;UK&quot;&gt;Class&amp;nbsp;&lt;/span&gt;&lt;/b&gt;" style="swimlane;fontStyle=0;childLayout=stackLayout;horizontal=1;startSize=26;fillColor=none;horizontalStack=0;resizeParent=1;resizeParentMax=0;resizeLast=0;collapsible=1;marginBottom=0;whiteSpace=wrap;html=1;" vertex="1" parent="1">
          <mxGeometry x="930" y="1560" width="200" height="170" as="geometry" />
        </mxCell>
        <mxCell id="YY8BE6eEwyNj8fWLuwdb-33" value="&lt;ul type=&quot;disc&quot; style=&quot;margin-top:0in&quot;&gt;&lt;br/&gt; &lt;li style=&quot;margin-bottom:0in;text-align:justify;line-height:&lt;br/&gt;     150%;mso-list:l0 level1 lfo1;tab-stops:list .5in&quot; class=&quot;MsoNormal&quot;&gt;&lt;font&gt;&lt;b style=&quot;&quot;&gt;&lt;span style=&quot;line-height: 150%; font-family: &amp;quot;Times New Roman&amp;quot;, serif;&quot; lang=&quot;UK&quot;&gt;classid&lt;/span&gt;&lt;/b&gt;&lt;span style=&quot;line-height: 150%; font-family: &amp;quot;Times New Roman&amp;quot;, serif;&quot; lang=&quot;UK&quot;&gt;: integer (Primary Key)&lt;/span&gt;&lt;/font&gt;&lt;/li&gt;&lt;br/&gt; &lt;li style=&quot;margin-bottom:0in;text-align:justify;line-height:&lt;br/&gt;     150%;mso-list:l0 level1 lfo1;tab-stops:list .5in&quot; class=&quot;MsoNormal&quot;&gt;&lt;font&gt;&lt;b&gt;&lt;span style=&quot;line-height: 150%; font-family: &amp;quot;Times New Roman&amp;quot;, serif;&quot; lang=&quot;UK&quot;&gt;classname&lt;/span&gt;&lt;/b&gt;&lt;span style=&quot;line-height: 150%; font-family: &amp;quot;Times New Roman&amp;quot;, serif;&quot; lang=&quot;UK&quot;&gt;: varchar(50)&lt;/span&gt;&lt;/font&gt;&lt;/li&gt;&lt;br/&gt; &lt;li style=&quot;margin-bottom:0in;text-align:justify;line-height:&lt;br/&gt;     150%;mso-list:l0 level1 lfo1;tab-stops:list .5in&quot; class=&quot;MsoNormal&quot;&gt;&lt;font&gt;&lt;b&gt;&lt;span style=&quot;line-height: 150%; font-family: &amp;quot;Times New Roman&amp;quot;, serif;&quot; lang=&quot;UK&quot;&gt;classlevel&lt;/span&gt;&lt;/b&gt;&lt;span style=&quot;line-height: 150%; font-family: &amp;quot;Times New Roman&amp;quot;, serif;&quot; lang=&quot;UK&quot;&gt;: integer&lt;/span&gt;&lt;/font&gt;&lt;/li&gt;&lt;br/&gt; &lt;li style=&quot;margin-bottom:0in;text-align:justify;line-height:&lt;br/&gt;     150%;mso-list:l0 level1 lfo1;tab-stops:list .5in&quot; class=&quot;MsoNormal&quot;&gt;&lt;b&gt;&lt;span style=&quot;line-height: 150%; font-family: &amp;quot;Times New Roman&amp;quot;, serif;&quot; lang=&quot;UK&quot;&gt;&lt;font&gt;totalstudents&lt;/font&gt;&lt;/span&gt;&lt;/b&gt;&lt;span style=&quot;line-height: 150%; font-family: &amp;quot;Times New Roman&amp;quot;, serif;&quot; lang=&quot;UK&quot;&gt;&lt;font&gt;: integer&lt;/font&gt;&lt;span style=&quot;font-size: 14pt;&quot;&gt;&lt;/span&gt;&lt;/span&gt;&lt;/li&gt;&lt;br/&gt;&lt;/ul&gt;" style="text;strokeColor=none;fillColor=none;align=left;verticalAlign=top;spacingLeft=4;spacingRight=4;overflow=hidden;rotatable=0;points=[[0,0.5],[1,0.5]];portConstraint=eastwest;whiteSpace=wrap;html=1;" vertex="1" parent="YY8BE6eEwyNj8fWLuwdb-32">
          <mxGeometry y="26" width="200" height="144" as="geometry" />
        </mxCell>
        <mxCell id="YY8BE6eEwyNj8fWLuwdb-36" value="" style="endArrow=none;html=1;rounded=0;curved=1;entryX=0;entryY=0.5;entryDx=0;entryDy=0;" edge="1" parent="1" source="YY8BE6eEwyNj8fWLuwdb-25" target="YY8BE6eEwyNj8fWLuwdb-33">
          <mxGeometry width="50" height="50" relative="1" as="geometry">
            <mxPoint x="880" y="1640" as="sourcePoint" />
            <mxPoint x="930" y="1590" as="targetPoint" />
          </mxGeometry>
        </mxCell>
        <mxCell id="YY8BE6eEwyNj8fWLuwdb-37" value="1" style="text;html=1;align=center;verticalAlign=middle;resizable=0;points=[];autosize=1;strokeColor=none;fillColor=none;" vertex="1" parent="1">
          <mxGeometry x="875" y="1618" width="30" height="30" as="geometry" />
        </mxCell>
        <mxCell id="YY8BE6eEwyNj8fWLuwdb-38" value="М" style="text;html=1;align=center;verticalAlign=middle;resizable=0;points=[];autosize=1;strokeColor=none;fillColor=none;" vertex="1" parent="1">
          <mxGeometry x="505" y="1618" width="30" height="30" as="geometry" />
        </mxCell>
        <mxCell id="YY8BE6eEwyNj8fWLuwdb-39" value="Навчається за розкладом" style="text;html=1;align=center;verticalAlign=middle;resizable=0;points=[];autosize=1;strokeColor=none;fillColor=none;" vertex="1" parent="1">
          <mxGeometry x="655" y="1618" width="170" height="30" as="geometry" />
        </mxCell>
        <mxCell id="YY8BE6eEwyNj8fWLuwdb-40" value="" style="endArrow=none;html=1;rounded=0;curved=1;entryX=0.509;entryY=1.032;entryDx=0;entryDy=0;entryPerimeter=0;" edge="1" parent="1" target="YY8BE6eEwyNj8fWLuwdb-12">
          <mxGeometry width="50" height="50" relative="1" as="geometry">
            <mxPoint x="490" y="1440" as="sourcePoint" />
            <mxPoint x="540" y="1390" as="targetPoint" />
          </mxGeometry>
        </mxCell>
        <mxCell id="YY8BE6eEwyNj8fWLuwdb-41" value="Вивчається" style="text;html=1;align=center;verticalAlign=middle;resizable=0;points=[];autosize=1;strokeColor=none;fillColor=none;" vertex="1" parent="1">
          <mxGeometry x="580" y="1300" width="90" height="30" as="geometry" />
        </mxCell>
        <mxCell id="YY8BE6eEwyNj8fWLuwdb-42" value="М" style="text;html=1;align=center;verticalAlign=middle;resizable=0;points=[];autosize=1;strokeColor=none;fillColor=none;" vertex="1" parent="1">
          <mxGeometry x="640" y="1180" width="30" height="30" as="geometry" />
        </mxCell>
        <mxCell id="YY8BE6eEwyNj8fWLuwdb-43" value="N" style="text;html=1;align=center;verticalAlign=middle;resizable=0;points=[];autosize=1;strokeColor=none;fillColor=none;" vertex="1" parent="1">
          <mxGeometry x="500" y="1410" width="30" height="30" as="geometry" />
        </mxCell>
        <mxCell id="YY8BE6eEwyNj8fWLuwdb-44" value="&lt;b&gt;&lt;span style=&quot;font-size:14.0pt;line-height:&lt;br/&gt;107%;font-family:&amp;quot;Times New Roman&amp;quot;,serif;mso-fareast-font-family:Calibri;&lt;br/&gt;mso-fareast-theme-font:minor-latin;mso-ansi-language:UK;mso-fareast-language:&lt;br/&gt;EN-US;mso-bidi-language:AR-SA&quot; lang=&quot;UK&quot;&gt;Classroom&amp;nbsp;&lt;/span&gt;&lt;/b&gt;" style="swimlane;fontStyle=0;childLayout=stackLayout;horizontal=1;startSize=26;fillColor=none;horizontalStack=0;resizeParent=1;resizeParentMax=0;resizeLast=0;collapsible=1;marginBottom=0;whiteSpace=wrap;html=1;" vertex="1" parent="1">
          <mxGeometry x="740" y="1880" width="230" height="170" as="geometry" />
        </mxCell>
        <mxCell id="YY8BE6eEwyNj8fWLuwdb-45" value="&lt;ul type=&quot;disc&quot; style=&quot;margin-top:0in&quot;&gt;&lt;br/&gt; &lt;li style=&quot;margin-bottom:0in;text-align:justify;line-height:&lt;br/&gt;     150%;mso-list:l0 level1 lfo1;tab-stops:list .5in&quot; class=&quot;MsoNormal&quot;&gt;&lt;font&gt;&lt;b style=&quot;&quot;&gt;&lt;span style=&quot;line-height: 150%; font-family: &amp;quot;Times New Roman&amp;quot;, serif;&quot; lang=&quot;UK&quot;&gt;classroomid&lt;/span&gt;&lt;/b&gt;&lt;span style=&quot;line-height: 150%; font-family: &amp;quot;Times New Roman&amp;quot;, serif;&quot; lang=&quot;UK&quot;&gt;: integer (Primary Key)&lt;/span&gt;&lt;/font&gt;&lt;/li&gt;&lt;br/&gt; &lt;li style=&quot;margin-bottom:0in;text-align:justify;line-height:&lt;br/&gt;     150%;mso-list:l0 level1 lfo1;tab-stops:list .5in&quot; class=&quot;MsoNormal&quot;&gt;&lt;font&gt;&lt;b&gt;&lt;span style=&quot;line-height: 150%; font-family: &amp;quot;Times New Roman&amp;quot;, serif;&quot; lang=&quot;UK&quot;&gt;roomnumber&lt;/span&gt;&lt;/b&gt;&lt;span style=&quot;line-height: 150%; font-family: &amp;quot;Times New Roman&amp;quot;, serif;&quot; lang=&quot;UK&quot;&gt;: varchar(10)&lt;/span&gt;&lt;/font&gt;&lt;/li&gt;&lt;br/&gt; &lt;li style=&quot;margin-bottom:0in;text-align:justify;line-height:&lt;br/&gt;     150%;mso-list:l0 level1 lfo1;tab-stops:list .5in&quot; class=&quot;MsoNormal&quot;&gt;&lt;font&gt;&lt;b&gt;&lt;span style=&quot;line-height: 150%; font-family: &amp;quot;Times New Roman&amp;quot;, serif;&quot; lang=&quot;UK&quot;&gt;capacity&lt;/span&gt;&lt;/b&gt;&lt;span style=&quot;line-height: 150%; font-family: &amp;quot;Times New Roman&amp;quot;, serif;&quot; lang=&quot;UK&quot;&gt;: integer&lt;/span&gt;&lt;/font&gt;&lt;/li&gt;&lt;br/&gt; &lt;li style=&quot;margin-bottom:0in;text-align:justify;line-height:&lt;br/&gt;     150%;mso-list:l0 level1 lfo1;tab-stops:list .5in&quot; class=&quot;MsoNormal&quot;&gt;&lt;font&gt;&lt;b&gt;&lt;span style=&quot;line-height: 150%; font-family: &amp;quot;Times New Roman&amp;quot;, serif;&quot; lang=&quot;UK&quot;&gt;equipment&lt;/span&gt;&lt;/b&gt;&lt;span style=&quot;line-height: 150%; font-family: &amp;quot;Times New Roman&amp;quot;, serif;&quot; lang=&quot;UK&quot;&gt;: varchar(500)&lt;/span&gt;&lt;/font&gt;&lt;/li&gt;&lt;br/&gt; &lt;li style=&quot;margin-bottom:0in;text-align:justify;line-height:&lt;br/&gt;     150%;mso-list:l0 level1 lfo1;tab-stops:list .5in&quot; class=&quot;MsoNormal&quot;&gt;&lt;b&gt;&lt;span style=&quot;line-height: 150%; font-family: &amp;quot;Times New Roman&amp;quot;, serif;&quot; lang=&quot;UK&quot;&gt;&lt;font&gt;type&lt;/font&gt;&lt;/span&gt;&lt;/b&gt;&lt;span style=&quot;line-height: 150%; font-family: &amp;quot;Times New Roman&amp;quot;, serif;&quot; lang=&quot;UK&quot;&gt;&lt;font&gt;: varchar(50)&lt;/font&gt;&lt;span style=&quot;font-size: 14pt;&quot;&gt;&lt;/span&gt;&lt;/span&gt;&lt;/li&gt;&lt;br/&gt;&lt;/ul&gt;" style="text;strokeColor=none;fillColor=none;align=left;verticalAlign=top;spacingLeft=4;spacingRight=4;overflow=hidden;rotatable=0;points=[[0,0.5],[1,0.5]];portConstraint=eastwest;whiteSpace=wrap;html=1;" vertex="1" parent="YY8BE6eEwyNj8fWLuwdb-44">
          <mxGeometry y="26" width="230" height="144" as="geometry" />
        </mxCell>
        <mxCell id="YY8BE6eEwyNj8fWLuwdb-48" value="" style="endArrow=none;html=1;rounded=0;curved=1;exitX=1.009;exitY=0.708;exitDx=0;exitDy=0;exitPerimeter=0;entryX=0;entryY=0;entryDx=0;entryDy=0;" edge="1" parent="1" source="YY8BE6eEwyNj8fWLuwdb-25" target="YY8BE6eEwyNj8fWLuwdb-44">
          <mxGeometry width="50" height="50" relative="1" as="geometry">
            <mxPoint x="770" y="1520" as="sourcePoint" />
            <mxPoint x="730" y="1870" as="targetPoint" />
          </mxGeometry>
        </mxCell>
        <mxCell id="YY8BE6eEwyNj8fWLuwdb-49" value="Використовується для проведення" style="text;html=1;align=center;verticalAlign=middle;resizable=0;points=[];autosize=1;strokeColor=none;fillColor=none;" vertex="1" parent="1">
          <mxGeometry x="580" y="1750" width="220" height="30" as="geometry" />
        </mxCell>
        <mxCell id="YY8BE6eEwyNj8fWLuwdb-50" value="M" style="text;html=1;align=center;verticalAlign=middle;resizable=0;points=[];autosize=1;strokeColor=none;fillColor=none;" vertex="1" parent="1">
          <mxGeometry x="725" y="1840" width="30" height="30" as="geometry" />
        </mxCell>
        <mxCell id="YY8BE6eEwyNj8fWLuwdb-51" value="N" style="text;html=1;align=center;verticalAlign=middle;resizable=0;points=[];autosize=1;strokeColor=none;fillColor=none;" vertex="1" parent="1">
          <mxGeometry x="505" y="1710" width="30" height="30" as="geometry" />
        </mxCell>
        <mxCell id="YY8BE6eEwyNj8fWLuwdb-52" value="&lt;b&gt;&lt;span style=&quot;font-size:14.0pt;line-height:&lt;br/&gt;107%;font-family:&amp;quot;Times New Roman&amp;quot;,serif;mso-fareast-font-family:Calibri;&lt;br/&gt;mso-fareast-theme-font:minor-latin;mso-ansi-language:UK;mso-fareast-language:&lt;br/&gt;EN-US;mso-bidi-language:AR-SA&quot; lang=&quot;UK&quot;&gt;Schedule_Override&amp;nbsp;&lt;/span&gt;&lt;/b&gt;" style="swimlane;fontStyle=0;childLayout=stackLayout;horizontal=1;startSize=26;fillColor=none;horizontalStack=0;resizeParent=1;resizeParentMax=0;resizeLast=0;collapsible=1;marginBottom=0;whiteSpace=wrap;html=1;" vertex="1" parent="1">
          <mxGeometry x="240" y="2020" width="270" height="330" as="geometry" />
        </mxCell>
        <mxCell id="YY8BE6eEwyNj8fWLuwdb-55" value="&lt;ul type=&quot;disc&quot; style=&quot;margin-top:0in&quot;&gt;&lt;br/&gt; &lt;li style=&quot;margin-bottom:0in;text-align:justify;line-height:&lt;br/&gt;     150%;mso-list:l0 level1 lfo1;tab-stops:list .5in&quot; class=&quot;MsoNormal&quot;&gt;&lt;font&gt;&lt;b style=&quot;&quot;&gt;&lt;span style=&quot;line-height: 150%; font-family: &amp;quot;Times New Roman&amp;quot;, serif;&quot; lang=&quot;UK&quot;&gt;override_id&lt;/span&gt;&lt;/b&gt;&lt;span style=&quot;line-height: 150%; font-family: &amp;quot;Times New Roman&amp;quot;, serif;&quot; lang=&quot;UK&quot;&gt;: integer (Primary Key)&lt;/span&gt;&lt;/font&gt;&lt;/li&gt;&lt;br/&gt; &lt;li style=&quot;margin-bottom:0in;text-align:justify;line-height:&lt;br/&gt;     150%;mso-list:l0 level1 lfo1;tab-stops:list .5in&quot; class=&quot;MsoNormal&quot;&gt;&lt;font&gt;&lt;b&gt;&lt;span style=&quot;line-height: 150%; font-family: &amp;quot;Times New Roman&amp;quot;, serif;&quot; lang=&quot;UK&quot;&gt;override_date&lt;/span&gt;&lt;/b&gt;&lt;span style=&quot;line-height: 150%; font-family: &amp;quot;Times New Roman&amp;quot;, serif;&quot; lang=&quot;UK&quot;&gt;: date&lt;/span&gt;&lt;/font&gt;&lt;/li&gt;&lt;br/&gt; &lt;li style=&quot;margin-bottom:0in;text-align:justify;line-height:&lt;br/&gt;     150%;mso-list:l0 level1 lfo1;tab-stops:list .5in&quot; class=&quot;MsoNormal&quot;&gt;&lt;font&gt;&lt;b&gt;&lt;span style=&quot;line-height: 150%; font-family: &amp;quot;Times New Roman&amp;quot;, serif;&quot; lang=&quot;UK&quot;&gt;starttime&lt;/span&gt;&lt;/b&gt;&lt;span style=&quot;line-height: 150%; font-family: &amp;quot;Times New Roman&amp;quot;, serif;&quot; lang=&quot;UK&quot;&gt;: time&lt;/span&gt;&lt;/font&gt;&lt;/li&gt;&lt;br/&gt; &lt;li style=&quot;margin-bottom:0in;text-align:justify;line-height:&lt;br/&gt;     150%;mso-list:l0 level1 lfo1;tab-stops:list .5in&quot; class=&quot;MsoNormal&quot;&gt;&lt;font&gt;&lt;b&gt;&lt;span style=&quot;line-height: 150%; font-family: &amp;quot;Times New Roman&amp;quot;, serif;&quot; lang=&quot;UK&quot;&gt;endtime&lt;/span&gt;&lt;/b&gt;&lt;span style=&quot;line-height: 150%; font-family: &amp;quot;Times New Roman&amp;quot;, serif;&quot; lang=&quot;UK&quot;&gt;: time&lt;/span&gt;&lt;/font&gt;&lt;/li&gt;&lt;br/&gt; &lt;li style=&quot;margin-bottom:0in;text-align:justify;line-height:&lt;br/&gt;     150%;mso-list:l0 level1 lfo1;tab-stops:list .5in&quot; class=&quot;MsoNormal&quot;&gt;&lt;font&gt;&lt;b&gt;&lt;span style=&quot;line-height: 150%; font-family: &amp;quot;Times New Roman&amp;quot;, serif;&quot; lang=&quot;UK&quot;&gt;regular_schedule_id&lt;/span&gt;&lt;/b&gt;&lt;span style=&quot;line-height: 150%; font-family: &amp;quot;Times New Roman&amp;quot;, serif;&quot; lang=&quot;UK&quot;&gt;: integer (Foreign Key)&lt;/span&gt;&lt;/font&gt;&lt;/li&gt;&lt;br/&gt; &lt;li style=&quot;margin-bottom:0in;text-align:justify;line-height:&lt;br/&gt;     150%;mso-list:l0 level1 lfo1;tab-stops:list .5in&quot; class=&quot;MsoNormal&quot;&gt;&lt;font&gt;&lt;b&gt;&lt;span style=&quot;line-height: 150%; font-family: &amp;quot;Times New Roman&amp;quot;, serif;&quot; lang=&quot;UK&quot;&gt;new_teacherid&lt;/span&gt;&lt;/b&gt;&lt;span style=&quot;line-height: 150%; font-family: &amp;quot;Times New Roman&amp;quot;, serif;&quot; lang=&quot;UK&quot;&gt;: integer (Foreign Key)&lt;/span&gt;&lt;/font&gt;&lt;/li&gt;&lt;br/&gt; &lt;li style=&quot;margin-bottom:0in;text-align:justify;line-height:&lt;br/&gt;     150%;mso-list:l0 level1 lfo1;tab-stops:list .5in&quot; class=&quot;MsoNormal&quot;&gt;&lt;font&gt;&lt;b&gt;&lt;span style=&quot;line-height: 150%; font-family: &amp;quot;Times New Roman&amp;quot;, serif;&quot; lang=&quot;UK&quot;&gt;new_classroomid&lt;/span&gt;&lt;/b&gt;&lt;span style=&quot;line-height: 150%; font-family: &amp;quot;Times New Roman&amp;quot;, serif;&quot; lang=&quot;UK&quot;&gt;: integer (Foreign Key)&lt;/span&gt;&lt;/font&gt;&lt;/li&gt;&lt;br/&gt; &lt;li style=&quot;margin-bottom:0in;text-align:justify;line-height:&lt;br/&gt;     150%;mso-list:l0 level1 lfo1;tab-stops:list .5in&quot; class=&quot;MsoNormal&quot;&gt;&lt;font&gt;&lt;b&gt;&lt;span style=&quot;line-height: 150%; font-family: &amp;quot;Times New Roman&amp;quot;, serif;&quot; lang=&quot;UK&quot;&gt;reason&lt;/span&gt;&lt;/b&gt;&lt;span style=&quot;line-height: 150%; font-family: &amp;quot;Times New Roman&amp;quot;, serif;&quot; lang=&quot;UK&quot;&gt;: varchar(255)&lt;/span&gt;&lt;/font&gt;&lt;/li&gt;&lt;br/&gt; &lt;li style=&quot;margin-bottom:0in;text-align:justify;line-height:&lt;br/&gt;     150%;mso-list:l0 level1 lfo1;tab-stops:list .5in&quot; class=&quot;MsoNormal&quot;&gt;&lt;b&gt;&lt;span style=&quot;line-height: 150%; font-family: &amp;quot;Times New Roman&amp;quot;, serif;&quot; lang=&quot;UK&quot;&gt;&lt;font&gt;created_at&lt;/font&gt;&lt;/span&gt;&lt;/b&gt;&lt;span style=&quot;line-height: 150%; font-family: &amp;quot;Times New Roman&amp;quot;, serif;&quot; lang=&quot;UK&quot;&gt;&lt;font&gt;: timestamp&lt;/font&gt;&lt;span style=&quot;font-size: 14pt;&quot;&gt;&lt;/span&gt;&lt;/span&gt;&lt;/li&gt;&lt;br/&gt;&lt;/ul&gt;" style="text;strokeColor=none;fillColor=none;align=left;verticalAlign=top;spacingLeft=4;spacingRight=4;overflow=hidden;rotatable=0;points=[[0,0.5],[1,0.5]];portConstraint=eastwest;whiteSpace=wrap;html=1;" vertex="1" parent="YY8BE6eEwyNj8fWLuwdb-52">
          <mxGeometry y="26" width="270" height="304" as="geometry" />
        </mxCell>
        <mxCell id="YY8BE6eEwyNj8fWLuwdb-56" value="" style="endArrow=none;html=1;rounded=0;curved=1;exitX=0.5;exitY=0;exitDx=0;exitDy=0;" edge="1" parent="1" source="YY8BE6eEwyNj8fWLuwdb-52">
          <mxGeometry width="50" height="50" relative="1" as="geometry">
            <mxPoint x="320" y="1890" as="sourcePoint" />
            <mxPoint x="370" y="1840" as="targetPoint" />
          </mxGeometry>
        </mxCell>
        <mxCell id="YY8BE6eEwyNj8fWLuwdb-57" value="Замінює" style="text;html=1;align=center;verticalAlign=middle;resizable=0;points=[];autosize=1;strokeColor=none;fillColor=none;" vertex="1" parent="1">
          <mxGeometry x="385" y="1938" width="70" height="30" as="geometry" />
        </mxCell>
        <mxCell id="YY8BE6eEwyNj8fWLuwdb-58" value="M" style="text;html=1;align=center;verticalAlign=middle;resizable=0;points=[];autosize=1;strokeColor=none;fillColor=none;" vertex="1" parent="1">
          <mxGeometry x="365" y="1838" width="30" height="30" as="geometry" />
        </mxCell>
        <mxCell id="YY8BE6eEwyNj8fWLuwdb-59" value="N" style="text;html=1;align=center;verticalAlign=middle;resizable=0;points=[];autosize=1;strokeColor=none;fillColor=none;" vertex="1" parent="1">
          <mxGeometry x="370" y="1990" width="30" height="30" as="geometry" />
        </mxCell>
        <mxCell id="YY8BE6eEwyNj8fWLuwdb-61" value="" style="endArrow=none;html=1;rounded=0;curved=1;entryX=-0.006;entryY=0.791;entryDx=0;entryDy=0;entryPerimeter=0;" edge="1" parent="1" target="YY8BE6eEwyNj8fWLuwdb-45">
          <mxGeometry width="50" height="50" relative="1" as="geometry">
            <mxPoint x="510" y="2020" as="sourcePoint" />
            <mxPoint x="560" y="1970" as="targetPoint" />
          </mxGeometry>
        </mxCell>
        <mxCell id="YY8BE6eEwyNj8fWLuwdb-62" value="M" style="text;html=1;align=center;verticalAlign=middle;resizable=0;points=[];autosize=1;strokeColor=none;fillColor=none;" vertex="1" parent="1">
          <mxGeometry x="695" y="1980" width="30" height="30" as="geometry" />
        </mxCell>
        <mxCell id="YY8BE6eEwyNj8fWLuwdb-63" value="N" style="text;html=1;align=center;verticalAlign=middle;resizable=0;points=[];autosize=1;strokeColor=none;fillColor=none;" vertex="1" parent="1">
          <mxGeometry x="510" y="1990" width="30" height="30" as="geometry" />
        </mxCell>
        <mxCell id="YY8BE6eEwyNj8fWLuwdb-64" value="Використовується для заміни" style="text;html=1;align=center;verticalAlign=middle;resizable=0;points=[];autosize=1;strokeColor=none;fillColor=none;" vertex="1" parent="1">
          <mxGeometry x="520" y="2020" width="190" height="30" as="geometry" />
        </mxCell>
        <mxCell id="YY8BE6eEwyNj8fWLuwdb-65" style="edgeStyle=orthogonalEdgeStyle;curved=1;rounded=0;orthogonalLoop=1;jettySize=auto;html=1;entryX=0;entryY=0.5;entryDx=0;entryDy=0;" edge="1" parent="1" source="YY8BE6eEwyNj8fWLuwdb-66" target="YY8BE6eEwyNj8fWLuwdb-55">
          <mxGeometry relative="1" as="geometry">
            <Array as="points">
              <mxPoint x="100" y="613" />
              <mxPoint x="100" y="2198" />
            </Array>
          </mxGeometry>
        </mxCell>
        <mxCell id="YY8BE6eEwyNj8fWLuwdb-67" value="" style="edgeStyle=orthogonalEdgeStyle;curved=1;rounded=0;orthogonalLoop=1;jettySize=auto;html=1;entryX=0;entryY=0.5;entryDx=0;entryDy=0;" edge="1" parent="1" source="YY8BE6eEwyNj8fWLuwdb-2" target="YY8BE6eEwyNj8fWLuwdb-66">
          <mxGeometry relative="1" as="geometry">
            <mxPoint x="220" y="613" as="sourcePoint" />
            <mxPoint x="240" y="2198" as="targetPoint" />
            <Array as="points" />
          </mxGeometry>
        </mxCell>
        <mxCell id="YY8BE6eEwyNj8fWLuwdb-66" value="M" style="text;html=1;align=center;verticalAlign=middle;resizable=0;points=[];autosize=1;strokeColor=none;fillColor=none;" vertex="1" parent="1">
          <mxGeometry x="180" y="585" width="30" height="30" as="geometry" />
        </mxCell>
        <mxCell id="YY8BE6eEwyNj8fWLuwdb-68" value="N" style="text;html=1;align=center;verticalAlign=middle;resizable=0;points=[];autosize=1;strokeColor=none;fillColor=none;" vertex="1" parent="1">
          <mxGeometry x="205" y="2150" width="30" height="30" as="geometry" />
        </mxCell>
        <mxCell id="YY8BE6eEwyNj8fWLuwdb-69" value="Замінює" style="text;html=1;align=center;verticalAlign=middle;resizable=0;points=[];autosize=1;strokeColor=none;fillColor=none;" vertex="1" parent="1">
          <mxGeometry x="110" y="1520" width="70" height="30" as="geometry" />
        </mxCell>
      </root>
    </mxGraphModel>
  </diagram>
</mxfile>
